<svg width="45" height="45" viewBox="0 0 45 45" fill="none" xmlns="http://www.w3.org/2000/svg">
<g clip-path="url(#clip0_22_2)">
<path fill-rule="evenodd" clip-rule="evenodd" d="M41.25 13.125C41.25 7.94813 37.0519 3.75 31.875 3.75C26.1488 3.75 18.8512 3.75 13.125 3.75C7.94813 3.75 3.75 7.94813 3.75 13.125C3.75 18.8512 3.75 26.1488 3.75 31.875C3.75 37.0519 7.94813 41.25 13.125 41.25C18.8512 41.25 26.1488 41.25 31.875 41.25C37.0519 41.25 41.25 37.0519 41.25 31.875C41.25 26.1488 41.25 18.8512 41.25 13.125Z" fill="white"/>
<path d="M28.0463 9.38436C31.9669 9.42186 35.5763 12.7875 35.6156 16.9537C35.6288 20.6512 35.6288 24.3487 35.6156 28.0462C35.5781 31.9519 32.2125 35.5762 28.0463 35.6156C24.3488 35.6287 20.6513 35.6287 16.9538 35.6156C13.0313 35.5781 9.42376 32.2125 9.38439 28.0462C9.37126 24.3487 9.37126 20.6512 9.38439 16.9537C9.42001 13.0294 12.7781 9.42373 16.9538 9.38436C20.6513 9.37123 24.3488 9.37123 28.0463 9.38436ZM17.0044 11.1562C13.9613 11.1656 11.1863 13.8037 11.1563 16.965C11.145 20.655 11.145 24.345 11.1563 28.035C11.1844 31.0444 13.7588 33.8137 16.965 33.8437C20.655 33.855 24.345 33.855 28.035 33.8437C31.0519 33.8156 33.8138 31.2412 33.8438 28.035C33.855 24.345 33.855 20.655 33.8438 16.965C33.8156 13.935 31.1906 11.1862 28.035 11.1562C24.3581 11.145 20.6813 11.1562 17.0044 11.1562Z" fill="#101010" stroke="#101010"/>
<path d="M22.545 15.9375C25.5787 15.9656 28.4062 18.3056 28.9612 21.3038C29.3569 23.4413 28.6106 25.7587 27.0356 27.2625C25.2825 28.9312 22.5694 29.5275 20.2444 28.6762C17.6456 27.7256 15.8175 24.9862 15.9394 22.2112C16.0875 18.8962 19.0162 15.9488 22.5 15.9375C22.515 15.9375 22.53 15.9375 22.545 15.9375ZM22.47 17.7131C20.3044 17.7337 18.2625 19.3763 17.8125 21.51C17.3569 23.6681 18.5981 26.0625 20.6362 26.9231C22.8619 27.8644 25.7362 26.8088 26.8106 24.6113C27.9225 22.3406 26.8744 19.2563 24.5269 18.1594C23.8875 17.8613 23.1769 17.7112 22.47 17.7131Z" fill="#101010" stroke="#101010"/>
<path fill-rule="evenodd" clip-rule="evenodd" d="M30.9375 15.4256C30.9375 15.0638 30.7931 14.7169 30.5381 14.4619C30.2831 14.2069 29.9362 14.0625 29.5744 14.0625C29.5462 14.0625 29.5163 14.0625 29.4881 14.0625C29.1263 14.0625 28.7794 14.2069 28.5244 14.4619C28.2694 14.7169 28.125 15.0638 28.125 15.4256C28.125 15.4406 28.125 15.4538 28.125 15.4688C28.125 15.8419 28.2731 16.2 28.5375 16.4625C28.8 16.7269 29.1581 16.875 29.5312 16.875C30.3075 16.875 30.9375 16.245 30.9375 15.4688C30.9375 15.4538 30.9375 15.4406 30.9375 15.4256Z" fill="#101010" stroke="#101010"/>
</g>
<defs>
<clipPath id="clip0_22_2">
<rect width="45" height="45" fill="white"/>
</clipPath>
</defs>
</svg>
