<svg width="45" height="45" viewBox="0 0 45 45" fill="none" xmlns="http://www.w3.org/2000/svg">
<path d="M35.45 4H9.55C6.48482 4 4 6.48482 4 9.55V35.45C4 38.5152 6.48482 41 9.55 41H35.45C38.5152 41 41 38.5152 41 35.45V9.55C41 6.48482 38.5152 4 35.45 4Z" fill="white"/>
<path d="M29.0137 28.6311L29.7945 23.6019H24.9315V20.3398C24.9315 18.967 25.6096 17.6214 27.7877 17.6214H30V13.3398C30 13.3398 27.9932 13 26.0753 13C22.0685 13 19.4521 15.4058 19.4521 19.7689V23.6019H15V28.6311H19.4521V41H24.9315V28.6311H29.0137Z" fill="#101010"/>
</svg>
