<svg width="40" height="39" viewBox="0 0 40 39" fill="none" xmlns="http://www.w3.org/2000/svg">
<path d="M39.4929 5.87196C39.096 5.41109 38.5246 5.14593 37.922 5.14593H9.20726L8.80206 2.69638C8.63583 1.68204 7.76934 0.937073 6.75324 0.937073H2.07792C0.92883 0.937073 0 1.87775 0 3.0415C0 4.20525 0.92883 5.14593 2.07792 5.14593H4.99324L8.85817 28.6398C8.87479 28.7345 8.92258 28.8124 8.95167 28.9008C8.98492 29.0123 9.01193 29.1175 9.06388 29.2185C9.13038 29.3574 9.21973 29.4753 9.31323 29.5952C9.37765 29.6773 9.43583 29.7594 9.51063 29.8309C9.63115 29.9445 9.77037 30.0245 9.91167 30.1045C9.99063 30.1487 10.0592 30.2076 10.1444 30.2413C10.3854 30.3402 10.6389 30.3991 10.907 30.3991H33.7662C34.9153 30.3991 35.8441 29.4584 35.8441 28.2947C35.8441 27.1309 34.9153 26.1902 33.7662 26.1902H12.6691L12.3241 24.0858H35.8441C36.8789 24.0858 37.7558 23.3156 37.9012 22.2802L39.9792 7.54919C40.0644 6.94312 39.8857 6.33073 39.4929 5.87196ZM35.5262 9.3548L34.934 13.5637H27.5324V9.3548H35.5262ZM25.4545 9.3548V13.5637H19.2207V9.3548H25.4545ZM25.4545 15.6681V19.877H19.2207V15.6681H25.4545ZM17.1428 9.3548V13.5637H10.9091C10.7989 13.5637 10.6992 13.5952 10.6015 13.6268L9.8992 9.3548H17.1428ZM10.9382 15.6681H17.1428V19.877H11.6301L10.9382 15.6681ZM27.5324 19.877V15.6681H34.6347L34.0425 19.877H27.5324Z" fill="white"/>
<path d="M14.0261 38.8168C15.7475 38.8168 17.1429 37.4035 17.1429 35.6602C17.1429 33.9168 15.7475 32.5035 14.0261 32.5035C12.3047 32.5035 10.9092 33.9168 10.9092 35.6602C10.9092 37.4035 12.3047 38.8168 14.0261 38.8168Z" fill="white"/>
<path d="M32.7272 38.8168C34.4486 38.8168 35.8441 37.4035 35.8441 35.6602C35.8441 33.9168 34.4486 32.5035 32.7272 32.5035C31.0058 32.5035 29.6104 33.9168 29.6104 35.6602C29.6104 37.4035 31.0058 38.8168 32.7272 38.8168Z" fill="white"/>
</svg>
