<svg width="45" height="45" viewBox="0 0 45 45" fill="none" xmlns="http://www.w3.org/2000/svg">
<path d="M28.2562 3.75H16.7438C6.24375 3.75 3.75 6.24375 3.75 16.7438V28.2563C3.75 38.7563 6.24375 41.25 16.7438 41.25H28.2562C38.7562 41.25 41.25 38.7563 41.25 28.2563V16.7438C41.25 6.24375 38.7562 3.75 28.2562 3.75ZM34.0312 30.5063H31.2938C30.2625 30.5063 29.9438 29.6625 28.125 27.8063C26.475 26.25 25.7625 26.025 25.3687 26.025C24.825 26.025 24.6562 26.175 24.6562 26.9625V29.4188C24.6562 30.075 24.45 30.4875 22.7062 30.4875C19.8187 30.4875 16.6125 28.725 14.3625 25.4813C10.9688 20.7188 10.05 17.1188 10.05 16.4063C10.05 16.0125 10.1812 15.6375 10.9688 15.6375H13.725C14.4188 15.6375 14.6812 15.9375 14.9437 16.6875C16.2937 20.625 18.5437 24 19.4625 24C19.8188 24 19.9688 23.8313 19.9688 22.9688V18.9375C19.875 17.1 18.8812 16.9313 18.8812 16.275C18.8812 15.9375 19.1437 15.6375 19.575 15.6375H23.8687C24.45 15.6375 24.6562 15.9375 24.6562 16.65V22.0688C24.6562 22.65 24.9 22.8563 25.0875 22.8563C25.425 22.8563 25.725 22.65 26.3438 22.0125C28.3125 19.8188 29.7188 16.425 29.7188 16.425C29.9062 16.0313 30.2062 15.6563 30.9375 15.6563H33.6188C34.4438 15.6563 34.6313 16.0875 34.4438 16.6688C34.1063 18.2625 30.7688 22.9688 30.8063 22.9688C30.5063 23.4375 30.3938 23.6438 30.8063 24.1875C31.0875 24.5813 32.0438 25.4063 32.6813 26.1375C33.8438 27.4688 34.7437 28.575 34.9875 29.3438C35.1938 30.1125 34.8187 30.5063 34.0312 30.5063Z" fill="white"/>
</svg>
